# xmcd
#
# Track frame offsets:
# 150
# 3993
# 19818
# 29189
# 49698
# 63273
# 85398
# 97694
# 101965
# 112256
# 124169
#
# Disc length: 1931 seconds
#
#
# Revision: 2
# Processed by: cddbd v1.5.1PL2 Copyright (c) Steve Scherf et al.
# Submitted via: FreeRIP 2.945 
#
DISCID=9107890b
DTITLE=Those Poor Bastards - Songs Of Desperation
DYEAR=2005
DGENRE=Country
TTITLE0=This Is Desperation
TTITLE1=With Hell So Near
TTITLE2=They Don't Make Folks Like They Used To
TTITLE3=Shadows Fall
TTITLE4=Drunk With Fear
TTITLE5=Deep In The Mud
TTITLE6=My Last Dollar
TTITLE7=A Bone To Pick
TTITLE8=Among The Pines
TTITLE9=Death Ain't You Got No Shame?
TTITLE10=Drown In The River
EXTD=http://www.gravewaxrecords.com\nhttp://www.thosepoorbastards.com
EXTT0=
EXTT1=
EXTT2=
EXTT3=
EXTT4=
EXTT5=
EXTT6=
EXTT7=
EXTT8=
EXTT9=
EXTT10=
PLAYORDER=
